<svg width="19" height="19" viewBox="0 0 19 19" fill="none" xmlns="http://www.w3.org/2000/svg">
<path d="M10.8475 9L18.1375 1.71C18.3013 1.5187 18.3869 1.27262 18.3772 1.02095C18.3675 0.769272 18.2631 0.530533 18.085 0.352439C17.9069 0.174344 17.6682 0.0700115 17.4165 0.0602903C17.1649 0.0505692 16.9188 0.136176 16.7275 0.300002L9.43747 7.59L2.14747 0.290002C1.95617 0.126176 1.7101 0.0405699 1.45842 0.0502911C1.20674 0.0600122 0.968005 0.164344 0.789911 0.342439C0.611816 0.520533 0.507483 0.759272 0.497762 1.01095C0.488041 1.26262 0.573647 1.5087 0.737474 1.7L8.02747 9L0.727474 16.29C0.622792 16.3796 0.537772 16.49 0.477748 16.614C0.417725 16.7381 0.383994 16.8732 0.378675 17.0109C0.373355 17.1487 0.396561 17.286 0.446836 17.4143C0.49711 17.5427 0.573369 17.6592 0.670823 17.7567C0.768278 17.8541 0.884825 17.9304 1.01315 17.9806C1.14148 18.0309 1.27881 18.0541 1.41653 18.0488C1.55425 18.0435 1.68938 18.0098 1.81344 17.9497C1.93751 17.8897 2.04783 17.8047 2.13747 17.7L9.43747 10.41L16.7275 17.7C16.9188 17.8638 17.1649 17.9494 17.4165 17.9397C17.6682 17.93 17.9069 17.8257 18.085 17.6476C18.2631 17.4695 18.3675 17.2307 18.3772 16.9791C18.3869 16.7274 18.3013 16.4813 18.1375 16.29L10.8475 9Z" fill="#FBFAFF"/>
</svg>
