<svg width="27" height="27" viewBox="0 0 27 27" fill="none" xmlns="http://www.w3.org/2000/svg">
<path fill-rule="evenodd" clip-rule="evenodd" d="M8.0572 0.786496C9.44347 0.722678 9.88548 0.708496 13.4167 0.708496C16.948 0.708496 17.39 0.72386 18.7751 0.786496C20.1602 0.849132 21.1057 1.07013 21.9329 1.39041C22.7992 1.71777 23.5851 2.2295 24.2351 2.89131C24.8969 3.54013 25.4075 4.32486 25.7337 5.19231C26.0551 6.01959 26.2749 6.96504 26.3387 8.34777C26.4026 9.73641 26.4167 10.1784 26.4167 13.7085C26.4167 17.2398 26.4014 17.6818 26.3387 19.068C26.2761 20.4508 26.0551 21.3962 25.7337 22.2235C25.4075 23.0911 24.8961 23.8771 24.2351 24.5269C23.5851 25.1887 22.7992 25.6992 21.9329 26.0254C21.1057 26.3469 20.1602 26.5667 18.7775 26.6305C17.39 26.6943 16.948 26.7085 13.4167 26.7085C9.88548 26.7085 9.44347 26.6931 8.0572 26.6305C6.67448 26.5679 5.72902 26.3469 4.90175 26.0254C4.0342 25.6992 3.24817 25.1878 2.59838 24.5269C1.93702 23.8776 1.42521 23.092 1.09866 22.2247C0.778384 21.3974 0.558566 20.4519 0.494748 19.0692C0.43093 17.6806 0.416748 17.2386 0.416748 13.7085C0.416748 10.1772 0.432112 9.73522 0.494748 8.35013C0.557384 6.96504 0.778384 6.01959 1.09866 5.19231C1.42569 4.32496 1.93789 3.53932 2.59957 2.89013C3.24843 2.22891 4.03367 1.71711 4.90057 1.39041C5.72784 1.07013 6.67329 0.850314 8.05602 0.786496H8.0572ZM18.6699 3.1265C17.299 3.06386 16.8877 3.05086 13.4167 3.05086C9.94575 3.05086 9.53447 3.06386 8.16357 3.1265C6.89547 3.18441 6.20766 3.39595 5.74911 3.5744C5.14284 3.81077 4.70911 4.09086 4.25411 4.54586C3.8228 4.96547 3.49087 5.47628 3.28266 6.04086C3.1042 6.4994 2.89266 7.18722 2.83475 8.45531C2.77211 9.82622 2.75911 10.2375 2.75911 13.7085C2.75911 17.1795 2.77211 17.5908 2.83475 18.9617C2.89266 20.2298 3.1042 20.9176 3.28266 21.3761C3.49066 21.9399 3.82275 22.4516 4.25411 22.8711C4.67366 23.3025 5.18538 23.6346 5.74911 23.8426C6.20766 24.021 6.89547 24.2326 8.16357 24.2905C9.53447 24.3531 9.94457 24.3661 13.4167 24.3661C16.8889 24.3661 17.299 24.3531 18.6699 24.2905C19.938 24.2326 20.6258 24.021 21.0844 23.8426C21.6907 23.6062 22.1244 23.3261 22.5794 22.8711C23.0107 22.4516 23.3428 21.9399 23.5508 21.3761C23.7293 20.9176 23.9408 20.2298 23.9987 18.9617C24.0614 17.5908 24.0744 17.1795 24.0744 13.7085C24.0744 10.2375 24.0614 9.82622 23.9987 8.45531C23.9408 7.18722 23.7293 6.4994 23.5508 6.04086C23.3145 5.43459 23.0344 5.00086 22.5794 4.54586C22.1598 4.11458 21.6489 3.78265 21.0844 3.5744C20.6258 3.39595 19.938 3.18441 18.6699 3.1265ZM11.7563 17.716C12.6836 18.1021 13.7162 18.1542 14.6777 17.8634C15.6391 17.5727 16.4698 16.9572 17.0279 16.1221C17.586 15.2869 17.8368 14.2839 17.7375 13.2843C17.6382 12.2848 17.195 11.3507 16.4836 10.6417C16.03 10.1884 15.4816 9.84136 14.8779 9.62549C14.2741 9.40961 13.63 9.33029 12.9919 9.39322C12.3538 9.45616 11.7376 9.6598 11.1876 9.98947C10.6376 10.3191 10.1676 10.7666 9.81138 11.2998C9.45513 11.8329 9.22152 12.4384 9.12736 13.0726C9.0332 13.7069 9.08084 14.3541 9.26684 14.9677C9.45284 15.5814 9.77259 16.1461 10.2031 16.6213C10.6335 17.0966 11.164 17.4704 11.7563 17.716ZM8.69184 8.98359C9.31232 8.3631 10.0489 7.87091 10.8596 7.5351C11.6703 7.1993 12.5393 7.02646 13.4167 7.02646C14.2942 7.02646 15.1631 7.1993 15.9738 7.5351C16.7846 7.87091 17.5212 8.3631 18.1417 8.98359C18.7621 9.60407 19.2543 10.3407 19.5901 11.1514C19.9259 11.9621 20.0988 12.831 20.0988 13.7085C20.0988 14.586 19.9259 15.4549 19.5901 16.2656C19.2543 17.0763 18.7621 17.8129 18.1417 18.4334C16.8885 19.6865 15.1889 20.3905 13.4167 20.3905C11.6446 20.3905 9.94496 19.6865 8.69184 18.4334C7.43871 17.1803 6.73472 15.4807 6.73472 13.7085C6.73472 11.9363 7.43871 10.2367 8.69184 8.98359ZM21.5807 8.02159C21.7345 7.87654 21.8576 7.70212 21.9427 7.50865C22.0279 7.31518 22.0733 7.10659 22.0764 6.89523C22.0795 6.68388 22.0401 6.47405 21.9607 6.27818C21.8812 6.08231 21.7633 5.90437 21.6138 5.75491C21.4643 5.60544 21.2864 5.48748 21.0905 5.40802C20.8946 5.32855 20.6848 5.28919 20.4735 5.29228C20.2621 5.29536 20.0535 5.34081 19.8601 5.42596C19.6666 5.5111 19.4922 5.63419 19.3471 5.78795C19.065 6.08699 18.9106 6.48418 18.9166 6.89523C18.9226 7.30628 19.0885 7.69881 19.3792 7.98949C19.6699 8.28018 20.0624 8.44613 20.4735 8.45212C20.8845 8.45811 21.2817 8.30367 21.5807 8.02159Z" fill="#FBFAFF"/>
</svg>
