<svg width="75" height="49" viewBox="0 0 75 49" fill="none" xmlns="http://www.w3.org/2000/svg">
<g clip-path="url(#clip0)">
<path d="M59.1465 27.1971C56.258 27.5569 53.9112 27.2869 53.9112 27.2869V9.65198H59.4172C59.4172 9.65198 65.5552 11.3614 65.5552 17.8396C65.5552 23.7779 62.4864 26.1173 59.1465 27.1971ZM74.3614 14.817C71.9534 2.13637 59.2369 0.560623 59.2369 0.560623H2.27558C0.394411 0.560623 0.162996 3.03666 0.162996 3.03666C0.162996 3.03666 -0.0907261 25.7683 0.0933363 39.7284C0.603671 47.2502 8.14473 48.0216 8.14473 48.0216C8.14473 48.0216 33.8788 47.9465 45.3917 47.8715C52.9815 46.5459 53.7438 39.9076 53.6687 36.2769C67.213 37.0271 76.7691 27.4978 74.3614 14.817Z" fill="white"/>
<path d="M26.4815 38.1293C27.0697 38.4246 27.4455 38.0577 27.4455 38.0577C27.4455 38.0577 36.0524 30.2251 39.9299 25.7143C43.3786 21.679 43.6034 14.8787 37.6808 12.3378C31.7583 9.79696 26.8854 15.327 26.8854 15.327C22.6597 10.6931 16.2641 10.9276 13.3061 14.0637C10.3481 17.1998 11.381 22.5824 13.5878 25.5781C15.6593 28.3902 24.7644 36.4817 26.1444 37.8501C26.1444 37.8501 26.245 37.955 26.4815 38.1293Z" fill="#F24481"/>
</g>
<defs>
<clipPath id="clip0">
<rect width="74.707" height="47.4609" fill="white" transform="translate(0.0263672 0.560547)"/>
</clipPath>
</defs>
</svg>
