<?xml version="1.0" standalone="no"?>
<!DOCTYPE svg PUBLIC "-//W3C//DTD SVG 20010904//EN"
 "http://www.w3.org/TR/2001/REC-SVG-20010904/DTD/svg10.dtd">
<svg version="1.0" xmlns="http://www.w3.org/2000/svg"
 width="700.000000pt" height="700.000000pt" viewBox="0 0 700.000000 700.000000"
 preserveAspectRatio="xMidYMid meet">
<metadata>
Created by potrace 1.14, written by Peter Selinger 2001-2017
</metadata>
<g transform="translate(0.000000,700.000000) scale(0.100000,-0.100000)"
fill="#000000" stroke="none">
<path d="M1406 6065 c-26 -13 -48 -36 -62 -63 -22 -41 -22 -45 -22 -557 l0
-515 1476 -1 c812 0 1489 -2 1503 -4 168 -22 349 -148 426 -297 72 -137 87
-318 40 -454 -28 -78 -66 -140 -125 -204 -67 -72 -139 -120 -240 -158 -67 -25
-68 -25 -422 -26 l-356 -1 2 -1430 c1 -786 2 -1433 3 -1436 2 -8 2214 -4 2229
4 22 14 13 48 -29 116 -71 114 -330 523 -374 591 -23 36 -55 87 -71 113 -16
27 -36 59 -44 72 -8 12 -34 53 -58 91 -24 38 -60 95 -80 127 -20 31 -90 142
-155 245 -65 103 -145 229 -178 281 -32 51 -59 95 -59 97 0 2 -18 30 -41 63
-39 57 -43 81 -15 81 29 0 221 86 316 142 152 89 356 265 466 403 177 223 301
501 349 780 35 211 21 487 -36 704 -37 140 -128 349 -193 444 -14 21 -26 40
-26 43 0 17 -129 173 -210 255 -113 114 -166 158 -280 231 -171 111 -377 202
-526 232 -11 3 -41 9 -69 16 -27 6 -68 13 -90 16 -22 3 -51 8 -65 11 -14 4
-682 7 -1484 8 l-1459 2 -41 -22z"/>
<path d="M1338 3782 c-15 -3 -17 -107 -17 -1360 0 -801 4 -1372 9 -1392 10
-37 46 -78 90 -101 20 -10 132 -13 541 -14 l516 0 -1 1432 c0 1006 -3 1433
-10 1434 -25 3 -1113 4 -1128 1z"/>
</g>
</svg>
