<svg width="655" height="740" viewBox="0 0 655 740" fill="none" xmlns="http://www.w3.org/2000/svg">
<path d="M654.992 242.01C654.992 136.037 585.852 46.0055 489.654 13.4014C464.689 4.93955 437.909 0.336182 410.035 0.336182H23.0824C22.3049 0.336182 21.5367 0.378218 20.779 0.452936C20.514 0.479788 20.2571 0.532325 19.9956 0.566182C19.5076 0.632728 19.0196 0.69343 18.5421 0.789163C18.2257 0.852207 17.9186 0.942101 17.6069 1.01799C17.1983 1.11722 16.7874 1.21064 16.3869 1.33205C16.046 1.43479 15.718 1.56203 15.3841 1.67995C15.028 1.80604 14.6696 1.92513 14.3228 2.06873C13.9703 2.21349 13.6305 2.38044 13.2873 2.54155C12.9767 2.68865 12.6639 2.82875 12.3615 2.98869C12.0019 3.17782 11.6551 3.38564 11.3072 3.59345C11.041 3.75223 10.7725 3.90633 10.5134 4.07561C10.1503 4.31261 9.8012 4.56595 9.45212 4.82279C9.2303 4.98741 9.00498 5.14736 8.78783 5.31898C8.42708 5.60501 8.08035 5.90739 7.73711 6.21327C7.55381 6.37672 7.37052 6.53782 7.19306 6.7071C6.83931 7.0445 6.49958 7.39591 6.16685 7.75433C6.02325 7.91077 5.87849 8.06605 5.73956 8.22482C5.39632 8.61593 5.07057 9.0187 4.75536 9.43199C4.64561 9.57559 4.53703 9.71803 4.43196 9.86397C4.10856 10.3076 3.80272 10.7629 3.51085 11.2311C3.43263 11.3572 3.35557 11.4844 3.27852 11.6128C2.98198 12.1102 2.70296 12.618 2.44378 13.1387C2.39007 13.245 2.33987 13.3535 2.28733 13.461C2.02465 14.0108 1.78064 14.5701 1.56115 15.1421C1.52729 15.2273 1.49811 15.3137 1.46659 15.399C1.2436 16.0002 1.04278 16.6096 0.869992 17.2319C0.853647 17.2926 0.839663 17.3545 0.823319 17.4152C0.648197 18.0667 0.498755 18.7251 0.379672 19.3964C0.373835 19.4303 0.370332 19.463 0.364494 19.4956C0.245412 20.1961 0.154353 20.9048 0.0983137 21.6251C0.0527821 22.217 0.00842285 22.8089 0.00842285 23.4113V165.404H177.649C177.626 165.476 177.604 165.548 177.579 165.619H399.68C399.68 165.619 406.902 165.441 411.709 165.404H413.485C459.395 165.549 496.569 202.305 496.569 247.633C496.569 289.653 464.617 324.287 423.381 329.238L329.711 329.236L328.942 329.238V739.445H482.436V739.087H644.405C649.001 739.087 651.795 734.023 649.341 730.135L486.267 471.732C584.225 440.11 654.992 349.22 654.992 242.01ZM0.00956296 716.012C0.00956296 728.756 10.3406 739.087 23.0847 739.087H165.078V329.235H0.00956296V716.012Z" fill="#FBFAFF"/>
</svg>
