<svg width="32" height="32" viewBox="0 0 32 32" fill="none" xmlns="http://www.w3.org/2000/svg">
<rect width="32" height="32" rx="4" fill="#526AD1"/>
<path d="M27.0004 11.9078C27.0004 8.51671 24.7879 5.63573 21.7096 4.5924C20.9107 4.32162 20.0538 4.17432 19.1618 4.17432H6.77938C6.7545 4.17432 6.72992 4.17566 6.70567 4.17805C6.69719 4.17891 6.68897 4.18059 6.6806 4.18168C6.66499 4.18381 6.64937 4.18575 6.63409 4.18881C6.62397 4.19083 6.61414 4.19371 6.60416 4.19613C6.59109 4.19931 6.57794 4.2023 6.56513 4.20618C6.55422 4.20947 6.54372 4.21354 6.53303 4.21732C6.52164 4.22135 6.51017 4.22516 6.49907 4.22976C6.48779 4.23439 6.47692 4.23973 6.46594 4.24489C6.456 4.2496 6.44599 4.25408 6.43631 4.2592C6.4248 4.26525 6.41371 4.2719 6.40258 4.27855C6.39406 4.28363 6.38547 4.28856 6.37717 4.29398C6.36555 4.30156 6.35438 4.30967 6.34321 4.31789C6.33611 4.32315 6.3289 4.32827 6.32196 4.33376C6.31041 4.34292 6.29932 4.35259 6.28833 4.36238C6.28247 4.36761 6.2766 4.37277 6.27092 4.37818C6.2596 4.38898 6.24873 4.40023 6.23808 4.4117C6.23349 4.4167 6.22886 4.42167 6.22441 4.42675C6.21343 4.43927 6.203 4.45216 6.19292 4.46538C6.1894 4.46998 6.18593 4.47453 6.18257 4.4792C6.17222 4.4934 6.16243 4.50797 6.15309 4.52295C6.15059 4.52699 6.14812 4.53106 6.14566 4.53517C6.13617 4.55108 6.12724 4.56733 6.11895 4.584C6.11723 4.5874 6.11562 4.59087 6.11394 4.59431C6.10553 4.6119 6.09773 4.6298 6.0907 4.6481C6.08962 4.65083 6.08869 4.6536 6.08768 4.65632C6.08054 4.67556 6.07411 4.69506 6.06859 4.71498C6.06806 4.71692 6.06762 4.7189 6.06709 4.72084C6.06149 4.74169 6.05671 4.76276 6.0529 4.78424C6.05271 4.78532 6.0526 4.78637 6.05241 4.78742C6.0486 4.80983 6.04569 4.83251 6.04389 4.85556C6.04244 4.8745 6.04102 4.89344 6.04102 4.91272V9.45647H11.7255C11.7247 9.45875 11.724 9.46107 11.7232 9.46335H18.8304C18.8304 9.46335 19.0615 9.45763 19.2154 9.45647H19.2722C20.7413 9.4611 21.9309 10.6373 21.9309 12.0878C21.9309 13.4324 20.9084 14.5407 19.5889 14.6991L16.5914 14.6991L16.5668 14.6991V27.8257H21.4786V27.8142H26.6616C26.8087 27.8142 26.8981 27.6521 26.8195 27.5277L21.6012 19.2589C24.7358 18.247 27.0004 15.3385 27.0004 11.9078ZM6.04105 27.0758C6.04105 27.4836 6.37164 27.8142 6.77945 27.8142H11.3232V14.699H6.04105V27.0758Z" fill="white"/>
</svg>
